<?xml version="1.0" encoding="UTF-8"?>
<!DOCTYPE svg PUBLIC "-//W3C//DTD SVG 1.1//EN" "http://www.w3.org/Graphics/SVG/1.1/DTD/svg11.dtd">
<!-- Creator: CorelDRAW 2019 (64 Bit) -->
<svg xmlns="http://www.w3.org/2000/svg" xml:space="preserve" width="140px" height="40px" version="1.1" style="shape-rendering:geometricPrecision; text-rendering:geometricPrecision; image-rendering:optimizeQuality; fill-rule:evenodd; clip-rule:evenodd"
viewBox="0 0 328893.15 87130.59"
 xmlns:xlink="http://www.w3.org/1999/xlink">
 <g id="Camada_x0020_1">
  <metadata id="CorelCorpID_0Corel-Layer"/>
  <g id="_2242532669680">
   <path fill="#fff" class="fil0" d="M43565.51 0c24060.46,0 43565.3,19504.84 43565.3,43565.3 0,13828.28 -6444.18,26150.07 -16491.64,34130.79l-1962.18 -3330.13c8927.62,-7287.38 14629.23,-18377.58 14629.23,-30800.66 0,-21948.41 -17792.5,-39740.92 -39740.7,-39740.92 -8236.67,0 -15887.83,2505.88 -22233.33,6796.4l-1828.44 -3375.44c6894.86,-4576.97 15166.17,-7245.34 24061.77,-7245.34zm24645.11 79490.98c-7009,4817.89 -15497.05,7639.61 -24645.11,7639.61 -24060.68,0 -43565.51,-19504.84 -43565.51,-43565.3 0,-14139.12 6737.59,-26703.13 17175.4,-34661.86l1688.81 3530.53c-9163.09,7280.2 -15039.61,18518.95 -15039.61,31131.32 0,21948.41 17792.5,39740.92 39740.92,39740.92 8466.7,0 16313.9,-2649.42 22760.69,-7162.35l1884.42 3347.12z"/>
   <polygon fill="#fff" class="fil1" points="47133.29,34713.26 41796.98,24837.45 70150.58,24837.45 60672.73,59960.66 53902.9,47456.33 57487.02,34554.03 "/>
   <polygon fill="#fff" class="fil1" points="41066.61,54128.35 46402.7,64004.39 18049.32,64004.39 27526.95,28881.18 34296.78,41385.29 30712.66,54287.59 "/>
   <polygon fill="#fff" class="fil2" points="59557.24,63385.76 31203.86,11138.77 27858.7,23085.47 56212.08,75969.6 "/>
  </g>
  <path fill="#fff" class="fil3" d="M94912.44 24390.47l11124.83 0 0 33984.63 8534.22 0 0 -33984.63 11074.3 0 0 -7823.02 -30733.36 0 0 7823.02zm42823.6 4673.47l-8229.48 0 0 29311.17 8229.48 0 0 -15188.82c0,-2235.34 1066.7,-6045.12 5079.93,-6604.06 1828.65,-304.74 3454.29,-50.75 4876.7,203.23 711.2,101.72 1320.68,203.23 1828.65,203.23l2133.61 -7416.77c-507.97,0 -1727.15,-507.97 -3657.52,-812.71 -711.2,-50.75 -1523.91,-101.51 -2438.35,-101.51 -3454.29,152.26 -6756.32,2133.61 -7823.02,3911.51l0 -3505.26zm25145.45 14731.82c0,-4622.71 2946.32,-7670.76 6959.56,-7670.76 3962.26,50.97 6908.58,3048.05 6908.58,7670.76l0 152.48c-50.75,4520.99 -2844.6,7518.28 -6908.58,7518.28 -4165.5,0 -6959.56,-3048.05 -6959.56,-7670.76zm21945.36 -12852.2c-1016.16,-304.74 -2133.61,-558.72 -3302.03,-761.96 -406.46,-50.75 -1066.7,50.75 -1930.38,203.23 -3098.8,-1269.93 -7467.53,-1727.15 -10464.6,-1676.39 -711.2,0 -1320.68,50.75 -1879.62,101.51 -7365.8,609.7 -12902.95,7264.3 -12902.95,14985.81 0,7721.51 5486.4,14376.11 12902.95,14985.81 4114.74,304.74 7112.03,-1066.91 9397.91,-3251.28l0 2844.81 8178.73 0 0 -27431.54zm28295.01 2031.89c-711.2,-1269.93 -3962.48,-3657.52 -8839.18,-4063.77 -1015.94,-101.72 -2082.64,-152.48 -3047.83,-50.75l-761.96 152.26c-6807.08,965.19 -12496.7,7518.28 -12496.7,14833.33 0,7315.05 5689.63,13766.63 12496.7,14731.82 1473.16,203.23 3047.83,101.51 4571.74,-253.99 3200.52,-558.94 5791.13,-1930.38 7162.79,-3251.28 1066.7,-1066.7 1879.62,-2082.64 2336.84,-2844.6l-5283.16 -3556.02c-761.96,1015.94 -2184.36,1981.13 -3860.76,2336.84 -1015.94,355.49 -2184.36,507.97 -3302.03,304.74 -3301.81,-558.72 -5638.66,-3403.54 -5638.66,-7518.28 50.75,-4114.74 2336.84,-7010.31 5638.66,-7569.03 1422.41,-152.48 2641.58,0 3708.5,507.97 203.01,203.23 355.49,406.46 507.97,609.48l406.25 762.17 6400.83 711.2c406.25,-1066.91 507.97,-4114.74 0,-5842.11zm33374.94 -3809.79l-11023.33 0 -10007.38 10617.08 0 -25501.16 -8229.48 0 0 44093.52 8229.48 0 0 -11480.54 11633.02 11480.54 10972.57 0 -15189.04 -14985.81 13614.15 -14223.63zm30174.85 -12598.21l-26720.34 0 0 41807.65 26720.34 0 0 -7823.02 -18186.11 0 0 -9194.67 15189.04 0 0 -7823.02 -15189.04 0 0 -9143.92 18186.11 0 0 -7823.02zm12344.23 12496.49l-8229.48 0 0 29311.17 8229.48 0 0 -15188.82c0,-2235.34 1066.7,-6045.12 5079.93,-6604.06 1828.65,-304.74 3454.29,-50.75 4876.7,203.23 711.2,101.72 1320.68,203.23 1828.65,203.23l2133.61 -7416.77c-507.97,0 -1727.15,-507.97 -3657.52,-812.71 -711.2,-50.75 -1523.91,-101.51 -2438.35,-101.51 -3454.29,152.26 -6756.32,2133.61 -7823.02,3911.51l0 -3505.26zm25958.38 0l-8229.48 0 0 29311.17 8229.48 0 0 -15188.82c0,-2235.34 1066.7,-6045.12 5079.93,-6604.06 1828.65,-304.74 3454.29,-50.75 4876.7,203.23 711.2,101.72 1320.68,203.23 1828.65,203.23l2133.61 -7416.77c-507.97,0 -1727.15,-507.97 -3657.52,-812.71 -711.2,-50.75 -1523.91,-101.51 -2438.35,-101.51 -3454.29,152.26 -6756.32,2133.61 -7823.02,3911.51l0 -3505.26z"/>
 </g>
</svg>
