<?xml version="1.0" encoding="UTF-8"?>
<!DOCTYPE svg PUBLIC "-//W3C//DTD SVG 1.1//EN" "http://www.w3.org/Graphics/SVG/1.1/DTD/svg11.dtd">
<!-- Creator: CorelDRAW 2019 (64 Bit) -->
<svg xmlns="http://www.w3.org/2000/svg" xml:space="preserve" width="100%" height="140px" version="1.1" style="shape-rendering:geometricPrecision; text-rendering:geometricPrecision; image-rendering:optimizeQuality; fill-rule:evenodd; clip-rule:evenodd"
viewBox="0 0 9813.31 11343.34"
 xmlns:xlink="http://www.w3.org/1999/xlink">
 <g id="Camada_x0020_1">
  <metadata id="CorelCorpID_0Corel-Layer"/>
  <g id="_2242522490000">
   <path class="fil0" d="M4940.86 0c2434.09,0 4407.3,1973.21 4407.3,4407.3 0,1398.95 -651.92,2645.49 -1668.38,3452.86l-198.5 -336.89c903.17,-737.24 1479.98,-1859.18 1479.98,-3115.97 0,-2220.41 -1799.99,-4020.4 -4020.4,-4020.4 -833.26,0 -1607.3,253.5 -2249.23,687.57l-184.97 -341.5c697.51,-463.02 1534.27,-732.97 2434.2,-732.97zm2493.24 8041.75c-709.07,487.4 -1567.77,772.85 -2493.24,772.85 -2434.1,0 -4407.31,-1973.21 -4407.31,-4407.31 0,-1430.39 681.59,-2701.42 1737.54,-3506.56l170.86 357.16c-926.98,736.5 -1521.49,1873.47 -1521.49,3149.4 0,2220.42 1799.99,4020.41 4020.41,4020.41 856.55,0 1650.41,-268.03 2302.6,-724.58l190.64 338.63z"/>
   <polygon class="fil1" points="5301.79,3511.79 4761.96,2512.69 7630.34,2512.69 6671.53,6065.95 5986.66,4800.95 6349.24,3495.68 "/>
   <polygon class="fil1" points="4688.05,5475.93 5227.88,6475.03 2359.5,6475.03 3318.31,2921.77 4003.19,4186.77 3640.6,5492.04 "/>
   <polygon fill="#1976d2" class="fil2" points="6558.67,6412.45 3690.28,1126.87 3351.88,2335.47 6220.26,7685.5 "/>
   <path class="fil3" d="M-0 9899.18l466.58 0 0 1425.34 357.93 0 0 -1425.34 464.46 0 0 -328.1 -1288.98 0 0 328.1zm1796.05 196.01l-345.15 0 0 1229.33 345.15 0 0 -637.03c0,-93.75 44.74,-253.54 213.06,-276.98 76.69,-12.78 144.88,-2.13 204.53,8.52 29.83,4.27 55.39,8.52 76.69,8.52l89.49 -311.06c-21.3,0 -72.44,-21.3 -153.4,-34.09 -29.83,-2.13 -63.91,-4.26 -102.27,-4.26 -144.88,6.39 -283.36,89.49 -328.1,164.05l0 -147.01zm1054.62 617.86c0,-193.88 123.57,-321.72 291.89,-321.72 166.18,2.14 289.75,127.84 289.75,321.72l0 6.4c-2.13,189.61 -119.3,315.32 -289.75,315.32 -174.7,0 -291.89,-127.84 -291.89,-321.72zm920.4 -539.03c-42.62,-12.78 -89.49,-23.43 -138.49,-31.96 -17.05,-2.13 -44.74,2.13 -80.96,8.52 -129.97,-53.26 -313.19,-72.44 -438.89,-70.31 -29.83,0 -55.39,2.13 -78.83,4.26 -308.93,25.57 -541.16,304.67 -541.16,628.52 0,323.85 230.1,602.94 541.16,628.52 172.58,12.78 298.28,-44.75 394.15,-136.36l0 119.31 343.02 0 0 -1150.5zm1186.71 85.22c-29.83,-53.26 -166.19,-153.4 -370.72,-170.44 -42.61,-4.27 -87.35,-6.4 -127.83,-2.13l-31.96 6.39c-285.49,40.48 -524.12,315.32 -524.12,622.12 0,306.8 238.63,577.38 524.12,617.86 61.79,8.52 127.83,4.26 191.74,-10.65 134.23,-23.44 242.88,-80.96 300.41,-136.36 44.74,-44.74 78.83,-87.35 98.01,-119.3l-221.58 -149.14c-31.96,42.61 -91.61,83.09 -161.92,98.01 -42.61,14.91 -91.61,21.3 -138.49,12.78 -138.48,-23.43 -236.49,-142.75 -236.49,-315.32 2.13,-172.58 98.01,-294.02 236.49,-317.45 59.66,-6.4 110.79,0 155.54,21.3 8.51,8.52 14.91,17.05 21.3,25.56l17.04 31.97 268.46 29.83c17.04,-44.75 21.3,-172.58 0,-245.02zm1399.77 -159.79l-462.33 0 -419.72 445.29 0 -1069.54 -345.15 0 0 1849.31 345.15 0 0 -481.5 487.9 481.5 460.2 0 -637.04 -628.52 570.99 -596.55zm1265.55 -528.38l-1120.67 0 0 1753.44 1120.67 0 0 -328.1 -762.74 0 0 -385.63 637.04 0 0 -328.1 -637.04 0 0 -383.5 762.74 0 0 -328.1zm517.73 524.11l-345.15 0 0 1229.33 345.15 0 0 -637.03c0,-93.75 44.74,-253.54 213.06,-276.98 76.69,-12.78 144.88,-2.13 204.53,8.52 29.83,4.27 55.39,8.52 76.69,8.52l89.49 -311.06c-21.3,0 -72.44,-21.3 -153.4,-34.09 -29.83,-2.13 -63.91,-4.26 -102.27,-4.26 -144.88,6.39 -283.36,89.49 -328.1,164.05l0 -147.01zm1088.71 0l-345.15 0 0 1229.33 345.15 0 0 -637.03c0,-93.75 44.74,-253.54 213.06,-276.98 76.69,-12.78 144.88,-2.13 204.53,8.52 29.83,4.27 55.39,8.52 76.69,8.52l89.49 -311.06c-21.3,0 -72.44,-21.3 -153.4,-34.09 -29.83,-2.13 -63.91,-4.26 -102.27,-4.26 -144.88,6.39 -283.36,89.49 -328.1,164.05l0 -147.01z"/>
  </g>
 </g>
</svg>
