<?xml version="1.0" encoding="UTF-8"?>
<!DOCTYPE svg PUBLIC "-//W3C//DTD SVG 1.1//EN" "http://www.w3.org/Graphics/SVG/1.1/DTD/svg11.dtd">
<!-- Creator: CorelDRAW 2019 (64 Bit) -->
<svg xmlns="http://www.w3.org/2000/svg" xml:space="preserve" width="96.4843mm" height="96.4843mm" version="1.1" style="shape-rendering:geometricPrecision; text-rendering:geometricPrecision; image-rendering:optimizeQuality; fill-rule:evenodd; clip-rule:evenodd"
viewBox="0 0 4557.96 4557.96"
 xmlns:xlink="http://www.w3.org/1999/xlink">
 <g id="Camada_x0020_1">
  <metadata id="CorelCorpID_0Corel-Layer"/>
  <path class="fil0" d="M2278.98 0c1258.65,0 2278.98,1020.33 2278.98,2278.98 0,723.39 -337.1,1367.96 -862.7,1785.45l-102.64 -174.2c467.02,-381.22 765.29,-961.37 765.29,-1611.24 0,-1148.15 -930.76,-2078.91 -2078.91,-2078.91 -430.87,0 -831.12,131.08 -1163.06,355.54l-95.65 -176.58c360.68,-239.42 793.36,-379.01 1258.71,-379.01zm1289.23 4158.32c-366.66,252.03 -810.68,399.64 -1289.23,399.64 -1258.65,0 -2278.98,-1020.33 -2278.98,-2278.98 0,-739.64 352.45,-1396.88 898.47,-1813.21l88.35 184.69c-479.33,380.84 -786.75,968.75 -786.75,1628.53 0,1148.16 930.76,2078.92 2078.92,2078.92 442.92,0 853.41,-138.59 1190.66,-374.67l98.58 175.1z"/>
  <polygon class="fil0" points="2465.62,1815.92 2186.48,1299.29 3669.69,1299.29 3173.9,3136.65 2819.76,2482.53 3007.24,1807.59 "/>
  <polygon class="fil0" points="2148.26,2831.56 2427.4,3348.18 944.18,3348.18 1439.98,1510.82 1794.12,2164.94 1606.63,2839.89 "/>
  <polygon class="fil1" fill="white" points="3115.54,3315.82 1632.32,582.7 1457.33,1207.65 2940.55,3974.1 "/>
 </g>
</svg>
