<?xml version="1.0" encoding="UTF-8"?>
<!DOCTYPE svg PUBLIC "-//W3C//DTD SVG 1.1//EN" "http://www.w3.org/Graphics/SVG/1.1/DTD/svg11.dtd">
<!-- Creator: CorelDRAW 2019 (64 Bit) -->
<svg xmlns="http://www.w3.org/2000/svg" xml:space="preserve" width="107.416mm" height="93.9173mm" version="1.1" style="shape-rendering:geometricPrecision; text-rendering:geometricPrecision; image-rendering:optimizeQuality; fill-rule:evenodd; clip-rule:evenodd"
viewBox="0 0 6274.08 5485.63"
 xmlns:xlink="http://www.w3.org/1999/xlink">
 <g id="Camada_x0020_1">
  <metadata id="CorelCorpID_0Corel-Layer"/>
  <g id="_2242534276704">
   <path class="fil0" d="M3137.04 0c1082.33,0 1959.73,877.4 1959.73,1959.73 0,622.06 -289.88,1176.34 -741.85,1535.34l-88.26 -149.8c401.6,-327.82 658.08,-826.7 658.08,-1385.54 0,-987.32 -800.37,-1787.69 -1787.69,-1787.69 -370.51,0 -714.69,112.72 -1000.13,305.73l-82.25 -151.85c310.15,-205.89 682.22,-325.92 1082.39,-325.92zm1108.63 3575.82c-315.29,216.73 -697.11,343.65 -1108.63,343.65 -1082.33,0 -1959.74,-877.4 -1959.74,-1959.74 0,-636.03 303.08,-1201.2 772.61,-1559.21l75.97 158.81c-412.19,327.49 -676.54,833.05 -676.54,1400.4 0,987.32 800.38,1787.7 1787.7,1787.7 380.87,0 733.86,-119.18 1023.86,-322.18l84.77 150.57z"/>
   <polygon class="fil1" points="3297.54,1561.54 3057.49,1117.28 4332.94,1117.28 3906.6,2697.26 3602.07,2134.77 3763.29,1554.38 "/>
   <polygon class="fil1" points="3024.63,2434.91 3264.67,2879.16 1989.23,2879.16 2415.57,1299.19 2720.1,1861.67 2558.88,2442.07 "/>
   <polygon fill="#1976d2" class="fil2" points="3856.41,2851.33 2580.97,501.07 2430.5,1038.48 3705.94,3417.41 "/>
  </g>
  <path class="fil3" d="M-0 4562.31l298.31 0 0 911.28 228.84 0 0 -911.28 296.95 0 0 -209.77 -824.1 0 0 209.77zm1148.29 125.32l-220.67 0 0 785.96 220.67 0 0 -407.28c0,-59.94 28.6,-162.1 136.22,-177.08 49.03,-8.17 92.63,-1.36 130.77,5.45 19.07,2.73 35.41,5.45 49.03,5.45l57.21 -198.88c-13.62,0 -46.31,-13.62 -98.07,-21.79 -19.07,-1.36 -40.86,-2.72 -65.38,-2.72 -92.63,4.08 -181.17,57.21 -209.77,104.89l0 -93.99zm674.26 395.03c0,-123.96 79,-205.69 186.62,-205.69 106.25,1.37 185.25,81.73 185.25,205.69l0 4.09c-1.36,121.23 -76.28,201.6 -185.25,201.6 -111.7,0 -186.62,-81.73 -186.62,-205.69zm588.45 -344.63c-27.25,-8.17 -57.21,-14.98 -88.54,-20.43 -10.9,-1.36 -28.6,1.36 -51.76,5.45 -83.09,-34.05 -200.24,-46.31 -280.6,-44.95 -19.07,0 -35.41,1.36 -50.4,2.72 -197.51,16.35 -345.99,194.79 -345.99,401.84 0,207.05 147.12,385.49 345.99,401.84 110.33,8.17 190.71,-28.61 252,-87.18l0 76.28 219.31 0 0 -735.56zm758.72 54.48c-19.07,-34.05 -106.25,-98.07 -237.02,-108.97 -27.24,-2.73 -55.84,-4.09 -81.73,-1.36l-20.43 4.08c-182.53,25.88 -335.09,201.6 -335.09,397.75 0,196.15 152.56,369.15 335.09,395.03 39.5,5.45 81.73,2.72 122.59,-6.81 85.82,-14.99 155.29,-51.76 192.07,-87.18 28.6,-28.6 50.4,-55.84 62.66,-76.28l-141.67 -95.35c-20.43,27.24 -58.57,53.12 -103.52,62.66 -27.24,9.53 -58.57,13.62 -88.54,8.17 -88.54,-14.98 -151.2,-91.26 -151.2,-201.6 1.36,-110.33 62.66,-187.98 151.2,-202.96 38.14,-4.09 70.83,0 99.44,13.62 5.44,5.45 9.53,10.9 13.62,16.34l10.89 20.44 171.64 19.07c10.89,-28.61 13.62,-110.33 0,-156.65zm894.93 -102.16l-295.59 0 -268.34 284.69 0 -683.8 -220.67 0 0 1182.35 220.67 0 0 -307.85 311.93 307.85 294.22 0 -407.29 -401.84 365.06 -381.4zm809.12 -337.81l-716.49 0 0 1121.05 716.49 0 0 -209.77 -487.65 0 0 -246.55 407.29 0 0 -209.77 -407.29 0 0 -245.19 487.65 0 0 -209.77zm331 335.09l-220.67 0 0 785.96 220.67 0 0 -407.28c0,-59.94 28.6,-162.1 136.22,-177.08 49.03,-8.17 92.63,-1.36 130.77,5.45 19.07,2.73 35.41,5.45 49.03,5.45l57.21 -198.88c-13.62,0 -46.31,-13.62 -98.07,-21.79 -19.07,-1.36 -40.86,-2.72 -65.38,-2.72 -92.63,4.08 -181.17,57.21 -209.77,104.89l0 -93.99zm696.06 0l-220.67 0 0 785.96 220.67 0 0 -407.28c0,-59.94 28.6,-162.1 136.22,-177.08 49.03,-8.17 92.63,-1.36 130.77,5.45 19.07,2.73 35.41,5.45 49.03,5.45l57.21 -198.88c-13.62,0 -46.31,-13.62 -98.07,-21.79 -19.07,-1.36 -40.86,-2.72 -65.38,-2.72 -92.63,4.08 -181.17,57.21 -209.77,104.89l0 -93.99z"/>
 </g>
</svg>
