<?xml version="1.0" encoding="UTF-8"?>
<!DOCTYPE svg PUBLIC "-//W3C//DTD SVG 1.1//EN" "http://www.w3.org/Graphics/SVG/1.1/DTD/svg11.dtd">
<!-- Creator: CorelDRAW 2019 (64 Bit) -->
<svg xmlns="http://www.w3.org/2000/svg" xml:space="preserve" width="180.601mm" height="67.1037mm" version="1.1" style="shape-rendering:geometricPrecision; text-rendering:geometricPrecision; image-rendering:optimizeQuality; fill-rule:evenodd; clip-rule:evenodd"
viewBox="0 0 62372.1 23174.79"
 xmlns:xlink="http://www.w3.org/1999/xlink">
 <g id="Camada_x0020_1">
  <metadata id="CorelCorpID_0Corel-Layer"/>
  <g id="_2243935374432">
   <path class="fil0" d="M11587.41 0c6399.55,0 11587.38,5187.86 11587.38,11587.38 0,3678.06 -1713.98,6955.37 -4386.39,9078.07l-521.87 -885.74c2374.54,-1938.32 3891.04,-4888.06 3891.04,-8192.34 0,-5837.76 -4732.4,-10570.16 -10570.16,-10570.16 -2190.74,0 -4225.8,666.51 -5913.53,1807.71l-486.33 -897.83c1833.85,-1217.35 4033.81,-1927.1 6399.86,-1927.1zm6555.06 21142.87c-1864.24,1281.45 -4121.85,2031.91 -6555.06,2031.91 -6399.55,0 -11587.41,-5187.83 -11587.41,-11587.41 0,-3760.67 1792.03,-7102.39 4568.22,-9219.22l449.21 939.03c-2437.16,1936.39 -4000.21,4925.6 -4000.21,8280.19 0,5837.79 4732.44,10570.19 10570.19,10570.19 2252.01,0 4339.14,-704.67 6053.85,-1904.99l501.22 890.3z"/>
   <polygon class="fil1" points="12536.38,9232.97 11117.07,6606.21 18658.44,6606.21 16137.6,15948.21 14336.98,12622.34 15290.23,9190.63 "/>
   <polygon class="fil1" points="10922.77,14396.96 12342.05,17023.72 4800.68,17023.72 7321.52,7681.76 9122.14,11007.59 8168.89,14439.31 "/>
   <polygon fill="#1976d2" class="fil2" points="15840.87,16859.19 8299.5,2962.72 7409.79,6140.25 14951.13,20206.23 "/>
  </g>
  <path class="fil3" d="M25275.11 8547.29l1763.81 0 0 5388.17 1353.08 0 0 -5388.17 1755.8 0 0 -1240.32 -4872.69 0 0 1240.32zm6789.56 740.97l-1304.76 0 0 4647.2 1304.76 0 0 -2408.15c0,-354.41 169.12,-958.44 805.41,-1047.06 289.93,-48.32 547.67,-8.05 773.19,32.22 112.76,16.13 209.39,32.22 289.93,32.22l338.28 -1175.91c-80.54,0 -273.83,-80.54 -579.89,-128.85 -112.76,-8.05 -241.61,-16.09 -386.59,-16.09 -547.67,24.14 -1071.2,338.28 -1240.32,620.16l0 -555.75zm3986.74 2335.69c0,-732.92 467.13,-1216.18 1103.42,-1216.18 628.21,8.08 1095.34,483.26 1095.34,1216.18l0 24.18c-8.05,716.79 -451,1192 -1095.34,1192 -660.43,0 -1103.42,-483.26 -1103.42,-1216.18zm3479.38 -2037.68c-161.11,-48.32 -338.28,-88.58 -523.53,-120.81 -64.44,-8.05 -169.12,8.05 -306.06,32.22 -491.31,-201.34 -1183.96,-273.83 -1659.13,-265.79 -112.76,0 -209.39,8.05 -298.01,16.09 -1167.83,96.67 -2045.73,1151.73 -2045.73,2375.96 0,1224.22 869.85,2279.29 2045.73,2375.96 652.38,48.32 1127.59,-169.16 1490.01,-515.48l0 451.04 1296.71 0 0 -4349.19zm4486.09 322.15c-112.76,-201.34 -628.24,-579.89 -1401.43,-644.3 -161.07,-16.13 -330.2,-24.18 -483.22,-8.05l-120.81 24.14c-1079.24,153.03 -1981.32,1192 -1981.32,2351.78 0,1159.78 902.07,2182.66 1981.32,2335.69 233.57,32.22 483.22,16.09 724.84,-40.27 507.43,-88.62 918.17,-306.06 1135.64,-515.48 169.12,-169.12 298.01,-330.2 370.5,-451l-837.63 -563.8c-120.81,161.07 -346.32,314.1 -612.11,370.5 -161.07,56.36 -346.32,80.54 -523.53,48.32 -523.49,-88.58 -893.99,-539.62 -893.99,-1192 8.05,-652.38 370.5,-1111.46 893.99,-1200.05 225.52,-24.18 418.82,0 587.97,80.54 32.19,32.22 56.36,64.44 80.54,96.63l64.41 120.84 1014.83 112.76c64.41,-169.16 80.54,-652.38 0,-926.25zm5291.5 -604.03l-1747.72 0 -1586.64 1683.31 0 -4043.14 -1304.76 0 0 6990.9 1304.76 0 0 -1820.21 1844.38 1820.21 1739.67 0 -2408.18 -2375.96 2158.49 -2255.12zm4784.14 -1997.41l-4236.43 0 0 6628.49 4236.43 0 0 -1240.32 -2883.36 0 0 -1457.79 2408.18 0 0 -1240.32 -2408.18 0 0 -1449.74 2883.36 0 0 -1240.32zm1957.14 1981.28l-1304.76 0 0 4647.2 1304.76 0 0 -2408.15c0,-354.41 169.12,-958.44 805.41,-1047.06 289.93,-48.32 547.67,-8.05 773.19,32.22 112.76,16.13 209.39,32.22 289.93,32.22l338.28 -1175.91c-80.54,0 -273.83,-80.54 -579.89,-128.85 -112.76,-8.05 -241.61,-16.09 -386.59,-16.09 -547.67,24.14 -1071.2,338.28 -1240.32,620.16l0 -555.75zm4115.63 0l-1304.76 0 0 4647.2 1304.76 0 0 -2408.15c0,-354.41 169.12,-958.44 805.41,-1047.06 289.93,-48.32 547.67,-8.05 773.19,32.22 112.76,16.13 209.39,32.22 289.93,32.22l338.28 -1175.91c-80.54,0 -273.83,-80.54 -579.89,-128.85 -112.76,-8.05 -241.61,-16.09 -386.59,-16.09 -547.67,24.14 -1071.2,338.28 -1240.32,620.16l0 -555.75z"/>
 </g>
</svg>
