<?xml version="1.0" encoding="UTF-8"?>
<!DOCTYPE svg PUBLIC "-//W3C//DTD SVG 1.1//EN" "http://www.w3.org/Graphics/SVG/1.1/DTD/svg11.dtd">
<!-- Creator: CorelDRAW 2019 (64 Bit) -->
<svg xmlns="http://www.w3.org/2000/svg" xml:space="preserve" width="107.416mm" height="124.164mm" version="1.1" style="shape-rendering:geometricPrecision; text-rendering:geometricPrecision; image-rendering:optimizeQuality; fill-rule:evenodd; clip-rule:evenodd"
viewBox="0 0 4615.65 5335.29"
 xmlns:xlink="http://www.w3.org/1999/xlink">
 <g id="Camada_x0020_1">
  <metadata id="CorelCorpID_0Corel-Layer"/>
  <g id="_2242525572144">
   <path class="fil0" d="M2323.91 0c1144.86,0 2072.95,928.09 2072.95,2072.95 0,657.99 -306.63,1244.29 -784.71,1624.04l-93.36 -158.46c424.8,-346.76 696.1,-874.46 696.1,-1465.58 0,-1044.36 -846.62,-1890.98 -1890.98,-1890.98 -391.92,0 -755.98,119.23 -1057.92,323.39l-87 -160.62c328.07,-217.78 721.64,-344.75 1144.92,-344.75zm1172.68 3782.4c-333.51,229.25 -737.39,363.51 -1172.68,363.51 -1144.87,0 -2072.96,-928.09 -2072.96,-2072.96 0,-672.78 320.58,-1270.6 817.24,-1649.3l80.36 167.99c-436,346.41 -715.63,881.18 -715.63,1481.31 0,1044.36 846.62,1890.98 1890.98,1890.98 402.88,0 776.26,-126.06 1083.02,-340.8l89.67 159.27z"/>
   <polygon class="fil0" points="2493.67,1651.75 2239.77,1181.83 3588.9,1181.83 3137.92,2853.09 2815.8,2258.1 2986.33,1644.18 "/>
   <polygon class="fil0" points="2205,2575.58 2458.91,3045.5 1109.78,3045.5 1560.75,1374.24 1882.88,1969.23 1712.34,2583.15 "/>
   <polygon fill="white" class="fil1" points="3084.84,3016.07 1735.71,530.02 1576.54,1098.48 2925.67,3614.84 "/>
   <path class="fil2" d="M-0 4656.03l219.46 0 0 670.4 168.35 0 0 -670.4 218.46 0 0 -154.32 -606.26 0 0 154.32zm844.76 92.19l-162.34 0 0 578.21 162.34 0 0 -299.62c0,-44.1 21.04,-119.25 100.21,-130.28 36.07,-6.01 68.14,-1 96.2,4.01 14.03,2.01 26.05,4.01 36.07,4.01l42.09 -146.31c-10.02,0 -34.07,-10.02 -72.15,-16.03 -14.03,-1 -30.06,-2 -48.1,-2 -68.14,3 -133.28,42.09 -154.32,77.16l0 -69.15zm496.03 290.61c0,-91.19 58.12,-151.32 137.29,-151.32 78.16,1.01 136.28,60.13 136.28,151.32l0 3.01c-1,89.18 -56.11,148.31 -136.28,148.31 -82.17,0 -137.29,-60.13 -137.29,-151.32zm432.91 -253.53c-20.05,-6.01 -42.09,-11.02 -65.14,-15.03 -8.02,-1 -21.04,1 -38.08,4.01 -61.13,-25.05 -147.31,-34.07 -206.43,-33.07 -14.03,0 -26.05,1 -37.08,2 -145.3,12.03 -254.53,143.3 -254.53,295.62 0,152.32 108.23,283.59 254.53,295.62 81.17,6.01 140.3,-21.05 185.39,-64.14l0 56.12 161.34 0 0 -541.13zm558.16 40.08c-14.03,-25.05 -78.17,-72.15 -174.37,-80.16 -20.04,-2.01 -41.08,-3.01 -60.12,-1l-15.03 3c-134.28,19.04 -246.52,148.31 -246.52,292.61 0,144.3 112.24,271.57 246.52,290.61 29.06,4.01 60.12,2 90.18,-5.01 63.14,-11.03 114.24,-38.08 141.3,-64.14 21.04,-21.04 37.08,-41.08 46.1,-56.11l-104.22 -70.15c-15.03,20.04 -43.09,39.08 -76.16,46.1 -20.04,7.01 -43.09,10.02 -65.14,6.01 -65.13,-11.02 -111.23,-67.14 -111.23,-148.31 1,-81.17 46.1,-138.29 111.23,-149.31 28.06,-3.01 52.11,0 73.16,10.02 4,4.01 7.01,8.02 10.02,12.02l8.01 15.04 126.27 14.03c8.01,-21.05 10.02,-81.17 0,-115.24zm658.37 -75.15l-217.45 0 -197.41 209.44 0 -503.05 -162.34 0 0 869.82 162.34 0 0 -226.47 229.48 226.47 216.45 0 -299.63 -295.62 268.56 -280.58zm595.25 -248.52l-527.1 0 0 824.72 527.1 0 0 -154.32 -358.75 0 0 -181.38 299.63 0 0 -154.32 -299.63 0 0 -180.38 358.75 0 0 -154.32zm243.51 246.51l-162.34 0 0 578.21 162.34 0 0 -299.62c0,-44.1 21.04,-119.25 100.21,-130.28 36.07,-6.01 68.14,-1 96.2,4.01 14.03,2.01 26.05,4.01 36.07,4.01l42.09 -146.31c-10.02,0 -34.07,-10.02 -72.15,-16.03 -14.03,-1 -30.06,-2 -48.1,-2 -68.14,3 -133.28,42.09 -154.32,77.16l0 -69.15zm512.07 0l-162.34 0 0 578.21 162.34 0 0 -299.62c0,-44.1 21.04,-119.25 100.21,-130.28 36.07,-6.01 68.14,-1 96.2,4.01 14.03,2.01 26.05,4.01 36.07,4.01l42.09 -146.31c-10.02,0 -34.07,-10.02 -72.15,-16.03 -14.03,-1 -30.06,-2 -48.1,-2 -68.14,3 -133.28,42.09 -154.32,77.16l0 -69.15z"/>
  </g>
 </g>
</svg>
