<?xml version="1.0" encoding="UTF-8"?>
<!DOCTYPE svg PUBLIC "-//W3C//DTD SVG 1.1//EN" "http://www.w3.org/Graphics/SVG/1.1/DTD/svg11.dtd">
<!-- Creator: CorelDRAW 2019 (64 Bit) -->
<svg xmlns="http://www.w3.org/2000/svg" xml:space="preserve" width="96.4843mm" height="96.4843mm" version="1.1" style="shape-rendering:geometricPrecision; text-rendering:geometricPrecision; image-rendering:optimizeQuality; fill-rule:evenodd; clip-rule:evenodd"
viewBox="0 0 2080.99 2080.99"
 xmlns:xlink="http://www.w3.org/1999/xlink">
 <defs>
  <style type="text/css">
   <![CDATA[
    .fil1 {fill:white}
    .fil0 {fill:white}
   ]]>
  </style>
 </defs>
 <g id="Camada_x0020_1">
  <metadata id="CorelCorpID_0Corel-Layer"/>
  <path class="fil0" d="M1040.5 0c574.65,0 1040.5,465.85 1040.5,1040.5 0,330.27 -153.91,624.56 -393.88,815.17l-46.86 -79.53c213.23,-174.05 349.4,-438.92 349.4,-735.63 0,-524.2 -424.95,-949.15 -949.15,-949.15 -196.72,0 -379.46,59.85 -531.01,162.32l-43.67 -80.62c164.67,-109.31 362.22,-173.04 574.68,-173.04zm588.62 1898.54c-167.4,115.07 -370.13,182.46 -588.62,182.46 -574.65,0 -1040.5,-465.85 -1040.5,-1040.5 0,-337.69 160.91,-637.76 410.21,-827.85l40.34 84.32c-218.85,173.88 -359.2,442.3 -359.2,743.53 0,524.21 424.95,949.16 949.16,949.16 202.22,0 389.64,-63.28 543.61,-171.06l45.01 79.94z"/>
  <polygon class="fil0" points="1125.71,829.08 998.26,593.21 1675.45,593.21 1449.08,1432.08 1287.4,1133.43 1373,825.28 "/>
  <polygon class="fil0" points="980.81,1292.78 1108.26,1528.66 431.08,1528.66 657.44,689.79 819.13,988.43 733.53,1296.59 "/>
  <polygon class="fil1" points="1422.44,1513.88 745.26,266.04 665.36,551.37 1342.55,1814.43 "/>
 </g>
</svg>
