<?xml version="1.0" encoding="UTF-8"?>
<!DOCTYPE svg PUBLIC "-//W3C//DTD SVG 1.1//EN" "http://www.w3.org/Graphics/SVG/1.1/DTD/svg11.dtd">
<!-- Creator: CorelDRAW 2019 (64 Bit) -->
<svg xmlns="http://www.w3.org/2000/svg" xml:space="preserve" width="107.416mm" height="20.4485mm" version="1.1" style="shape-rendering:geometricPrecision; text-rendering:geometricPrecision; image-rendering:optimizeQuality; fill-rule:evenodd; clip-rule:evenodd"
viewBox="0 0 2459.08 468.13"
 xmlns:xlink="http://www.w3.org/1999/xlink">
 <defs>
  <style type="text/css">
   <![CDATA[
    .fil0 {fill:white;fill-rule:nonzero}
   ]]>
  </style>
 </defs>
 <g id="Camada_x0020_1">
  <metadata id="CorelCorpID_0Corel-Layer"/>
  <path class="fil0" d="M-0 106.24l116.92 0 0 357.17 89.69 0 0 -357.17 116.39 0 0 -82.22 -323 0 0 82.22zm450.07 49.12l-86.49 0 0 308.05 86.49 0 0 -159.63c0,-23.49 11.21,-63.53 53.39,-69.41 19.22,-3.2 36.3,-0.53 51.25,2.14 7.47,1.07 13.88,2.14 19.22,2.14l22.42 -77.95c-5.34,0 -18.15,-5.34 -38.44,-8.54 -7.47,-0.53 -16.02,-1.07 -25.63,-1.07 -36.3,1.6 -71.01,22.42 -82.22,41.11l0 -36.84zm264.27 154.83c0,-48.58 30.97,-80.62 73.14,-80.62 41.64,0.54 72.61,32.03 72.61,80.62l0 1.6c-0.53,47.51 -29.9,79.02 -72.61,79.02 -43.78,0 -73.14,-32.03 -73.14,-80.62zm230.64 -135.07c-10.68,-3.2 -22.42,-5.87 -34.7,-8.01 -4.27,-0.53 -11.21,0.53 -20.29,2.14 -32.57,-13.35 -78.48,-18.15 -109.98,-17.62 -7.47,0 -13.88,0.53 -19.75,1.07 -77.41,6.41 -135.61,76.35 -135.61,157.5 0,81.15 57.66,151.09 135.61,157.5 43.24,3.2 74.75,-11.21 98.77,-34.17l0 29.9 85.96 0 0 -288.3zm297.37 21.35c-7.47,-13.35 -41.64,-38.44 -92.9,-42.71 -10.68,-1.07 -21.89,-1.6 -32.03,-0.53l-8.01 1.6c-71.54,10.14 -131.34,79.02 -131.34,155.89 0,76.88 59.8,144.68 131.34,154.83 15.48,2.14 32.03,1.07 48.05,-2.67 33.64,-5.87 60.86,-20.29 75.28,-34.17 11.21,-11.21 19.75,-21.89 24.56,-29.9l-55.52 -37.37c-8.01,10.68 -22.96,20.82 -40.58,24.56 -10.68,3.74 -22.96,5.34 -34.7,3.2 -34.7,-5.87 -59.26,-35.77 -59.26,-79.02 0.53,-43.24 24.56,-73.68 59.26,-79.55 14.95,-1.6 27.76,0 38.98,5.34 2.13,2.14 3.74,4.27 5.34,6.41l4.27 8.01 67.27 7.47c4.27,-11.21 5.34,-43.24 0,-61.4zm350.76 -40.04l-115.85 0 -105.18 111.58 0 -268.01 -86.49 0 0 463.41 86.49 0 0 -120.66 122.26 120.66 115.32 0 -159.63 -157.5 143.08 -149.49zm317.13 -132.4l-280.82 0 0 439.39 280.82 0 0 -82.22 -191.13 0 0 -96.63 159.63 0 0 -82.22 -159.63 0 0 -96.1 191.13 0 0 -82.22zm129.73 131.34l-86.49 0 0 308.05 86.49 0 0 -159.63c0,-23.49 11.21,-63.53 53.39,-69.41 19.22,-3.2 36.3,-0.53 51.25,2.14 7.47,1.07 13.88,2.14 19.22,2.14l22.42 -77.95c-5.34,0 -18.15,-5.34 -38.44,-8.54 -7.47,-0.53 -16.02,-1.07 -25.63,-1.07 -36.3,1.6 -71.01,22.42 -82.22,41.11l0 -36.84zm272.82 0l-86.49 0 0 308.05 86.49 0 0 -159.63c0,-23.49 11.21,-63.53 53.39,-69.41 19.22,-3.2 36.3,-0.53 51.25,2.14 7.47,1.07 13.88,2.14 19.22,2.14l22.42 -77.95c-5.34,0 -18.15,-5.34 -38.44,-8.54 -7.47,-0.53 -16.02,-1.07 -25.63,-1.07 -36.3,1.6 -71.01,22.42 -82.22,41.11l0 -36.84z"/>
 </g>
</svg>
