<?xml version="1.0" encoding="UTF-8"?>
<!DOCTYPE svg PUBLIC "-//W3C//DTD SVG 1.1//EN" "http://www.w3.org/Graphics/SVG/1.1/DTD/svg11.dtd">
<!-- Creator: CorelDRAW 2019 (64 Bit) -->
<svg xmlns="http://www.w3.org/2000/svg" xml:space="preserve" width="107.416mm" height="124.164mm" version="1.1" style="shape-rendering:geometricPrecision; text-rendering:geometricPrecision; image-rendering:optimizeQuality; fill-rule:evenodd; clip-rule:evenodd"
viewBox="0 0 2668.5 3084.56"
 xmlns:xlink="http://www.w3.org/1999/xlink">
 <defs>
  <style type="text/css">
   <![CDATA[
    .fil0 {fill:black}
    .fil1 {fill:#00A859}
    .fil2 {fill:black;fill-rule:nonzero}
   ]]>
  </style>
 </defs>
 <g id="Camada_x0020_1">
  <metadata id="CorelCorpID_0Corel-Layer"/>
  <path class="fil0" d="M1343.55 0c661.89,0 1198.46,536.57 1198.46,1198.46 0,380.41 -177.27,719.38 -453.68,938.93l-53.98 -91.61c245.6,-200.48 402.45,-505.56 402.45,-847.32 0,-603.79 -489.47,-1093.25 -1093.25,-1093.25 -226.59,0 -437.07,68.93 -611.63,186.97l-50.3 -92.86c189.67,-125.91 417.21,-199.32 661.93,-199.32zm677.98 2186.77c-192.82,132.54 -426.32,210.16 -677.98,210.16 -661.9,0 -1198.47,-536.57 -1198.47,-1198.47 0,-388.96 185.34,-734.59 472.48,-953.53l46.46 97.12c-252.07,200.27 -413.73,509.45 -413.73,856.41 0,603.79 489.47,1093.26 1093.26,1093.26 232.92,0 448.79,-72.88 626.14,-197.03l51.84 92.08z"/>
  <polygon class="fil0" points="1441.7,954.95 1294.9,683.27 2074.9,683.27 1814.17,1649.49 1627.93,1305.51 1726.53,950.57 "/>
  <polygon class="fil0" points="1274.81,1489.05 1421.6,1760.73 641.61,1760.73 902.34,794.51 1088.57,1138.5 989.98,1493.43 "/>
  <polygon class="fil1" points="1783.48,1743.72 1003.49,306.43 911.47,635.08 1691.46,2089.89 "/>
  <path class="fil2" d="M-0 2691.85l126.88 0 0 387.59 97.33 0 0 -387.59 126.3 0 0 -89.22 -350.51 0 0 89.22zm488.39 53.3l-93.86 0 0 334.29 93.86 0 0 -173.23c0,-25.49 12.17,-68.94 57.94,-75.32 20.86,-3.48 39.4,-0.58 55.62,2.32 8.11,1.16 15.06,2.32 20.86,2.32l24.33 -84.59c-5.79,0 -19.7,-5.79 -41.71,-9.27 -8.11,-0.58 -17.38,-1.16 -27.81,-1.16 -39.4,1.74 -77.05,24.33 -89.22,44.61l0 -39.98zm286.78 168.01c0,-52.72 33.6,-87.48 79.37,-87.48 45.19,0.58 78.79,34.76 78.79,87.48l0 1.74c-0.58,51.56 -32.44,85.74 -78.79,85.74 -47.51,0 -79.37,-34.76 -79.37,-87.48zm250.28 -146.58c-11.59,-3.48 -24.33,-6.37 -37.66,-8.69 -4.64,-0.58 -12.17,0.58 -22.02,2.32 -35.34,-14.48 -85.17,-19.7 -119.35,-19.12 -8.11,0 -15.06,0.58 -21.44,1.16 -84.01,6.95 -147.16,82.85 -147.16,170.91 0,88.06 62.57,163.96 147.16,170.91 46.93,3.48 81.11,-12.17 107.18,-37.08l0 32.44 93.28 0 0 -312.85zm322.7 23.17c-8.11,-14.48 -45.19,-41.71 -100.81,-46.35 -11.59,-1.16 -23.75,-1.74 -34.76,-0.58l-8.69 1.74c-77.63,11.01 -142.52,85.74 -142.52,169.17 0,83.43 64.89,157.01 142.52,168.01 16.8,2.32 34.76,1.16 52.14,-2.9 36.5,-6.37 66.05,-22.02 81.69,-37.08 12.17,-12.17 21.44,-23.75 26.65,-32.44l-60.25 -40.56c-8.69,11.59 -24.91,22.59 -44.03,26.65 -11.59,4.05 -24.91,5.79 -37.66,3.48 -37.66,-6.37 -64.31,-38.82 -64.31,-85.74 0.58,-46.93 26.65,-79.95 64.31,-86.32 16.22,-1.74 30.13,0 42.29,5.79 2.32,2.32 4.05,4.64 5.79,6.95l4.63 8.69 73 8.11c4.63,-12.17 5.79,-46.93 0,-66.63zm380.63 -43.45l-125.72 0 -114.13 121.09 0 -290.84 -93.86 0 0 502.88 93.86 0 0 -130.93 132.67 130.93 125.14 0 -173.23 -170.91 155.27 -162.22zm344.14 -143.68l-304.74 0 0 476.81 304.74 0 0 -89.22 -207.41 0 0 -104.86 173.23 0 0 -89.22 -173.23 0 0 -104.28 207.41 0 0 -89.22zm140.78 142.52l-93.86 0 0 334.29 93.86 0 0 -173.23c0,-25.49 12.17,-68.94 57.94,-75.32 20.86,-3.48 39.4,-0.58 55.62,2.32 8.11,1.16 15.06,2.32 20.86,2.32l24.33 -84.59c-5.79,0 -19.7,-5.79 -41.71,-9.27 -8.11,-0.58 -17.38,-1.16 -27.81,-1.16 -39.4,1.74 -77.05,24.33 -89.22,44.61l0 -39.98zm296.05 0l-93.86 0 0 334.29 93.86 0 0 -173.23c0,-25.49 12.17,-68.94 57.94,-75.32 20.86,-3.48 39.4,-0.58 55.62,2.32 8.11,1.16 15.06,2.32 20.86,2.32l24.33 -84.59c-5.79,0 -19.7,-5.79 -41.71,-9.27 -8.11,-0.58 -17.38,-1.16 -27.81,-1.16 -39.4,1.74 -77.05,24.33 -89.22,44.61l0 -39.98z"/>
 </g>
</svg>
