<?xml version="1.0" encoding="UTF-8"?>
<!DOCTYPE svg PUBLIC "-//W3C//DTD SVG 1.1//EN" "http://www.w3.org/Graphics/SVG/1.1/DTD/svg11.dtd">
<!-- Creator: CorelDRAW 2019 (64 Bit) -->
<svg xmlns="http://www.w3.org/2000/svg" xml:space="preserve" width="96.4843mm" height="96.4843mm" version="1.1" style="shape-rendering:geometricPrecision; text-rendering:geometricPrecision; image-rendering:optimizeQuality; fill-rule:evenodd; clip-rule:evenodd"
viewBox="0 0 1947.03 1947.03"
 xmlns:xlink="http://www.w3.org/1999/xlink">
 <defs>
  <style type="text/css">
   <![CDATA[
    .fil0 {fill:black}
    .fil1 {fill:#00A859}
   ]]>
  </style>
 </defs>
 <g id="Camada_x0020_1">
  <metadata id="CorelCorpID_0Corel-Layer"/>
  <path class="fil0" d="M973.51 0c537.66,0 973.51,435.86 973.51,973.51 0,309.01 -144,584.35 -368.52,762.69l-43.85 -74.41c199.5,-162.85 326.91,-410.67 326.91,-688.28 0,-490.46 -397.59,-888.05 -888.05,-888.05 -184.06,0 -355.03,55.99 -496.82,151.87l-40.86 -75.43c154.07,-102.27 338.9,-161.9 537.68,-161.9zm550.72 1776.31c-156.62,107.66 -346.3,170.71 -550.72,170.71 -537.66,0 -973.51,-435.86 -973.51,-973.51 0,-315.95 150.55,-596.71 383.8,-774.55l37.74 78.89c-204.76,162.68 -336.08,413.82 -336.08,695.66 0,490.46 397.59,888.05 888.05,888.05 189.2,0 364.55,-59.2 508.61,-160.05l42.11 74.8z"/>
  <polygon class="fil0" points="1053.24,775.71 934,555.02 1567.59,555.02 1355.8,1339.89 1204.52,1060.46 1284.61,772.15 "/>
  <polygon class="fil0" points="917.67,1209.56 1036.91,1430.25 403.33,1430.25 615.12,645.38 766.4,924.8 686.31,1213.12 "/>
  <polygon class="fil1" points="1330.87,1416.42 697.28,248.91 622.53,515.87 1256.12,1697.62 "/>
 </g>
</svg>
