<?xml version="1.0" encoding="UTF-8"?>
<!DOCTYPE svg PUBLIC "-//W3C//DTD SVG 1.1//EN" "http://www.w3.org/Graphics/SVG/1.1/DTD/svg11.dtd">
<!-- Creator: CorelDRAW 2019 (64 Bit) -->
<svg xmlns="http://www.w3.org/2000/svg" xml:space="preserve" width="96.4843mm" height="96.4843mm" version="1.1" style="shape-rendering:geometricPrecision; text-rendering:geometricPrecision; image-rendering:optimizeQuality; fill-rule:evenodd; clip-rule:evenodd"
viewBox="0 0 3086.43 3086.43"
 xmlns:xlink="http://www.w3.org/1999/xlink">
 <defs>
  <style type="text/css">
   <![CDATA[
    .fil0 {fill:black}
   ]]>
  </style>
 </defs>
 <g id="Camada_x0020_1">
  <metadata id="CorelCorpID_0Corel-Layer"/>
  <path class="fil0" d="M1543.22 0c852.29,0 1543.21,690.92 1543.21,1543.21 0,489.84 -228.27,926.32 -584.18,1209.02l-69.51 -117.96c316.25,-258.14 518.21,-650.99 518.21,-1091.06 0,-777.47 -630.26,-1407.74 -1407.74,-1407.74 -291.76,0 -562.79,88.76 -787.57,240.75l-64.77 -119.57c244.23,-162.13 537.22,-256.65 852.33,-256.65zm873.01 2815.81c-248.28,170.66 -548.95,270.61 -873.01,270.61 -852.3,0 -1543.22,-690.92 -1543.22,-1543.22 0,-500.85 238.66,-945.9 608.4,-1227.82l59.83 125.06c-324.58,257.88 -532.75,655.99 -532.75,1102.76 0,777.48 630.26,1407.74 1407.74,1407.74 299.92,0 577.89,-93.85 806.25,-253.71l66.75 118.57z"/>
  <polygon class="fil0" points="1669.6,1229.65 1480.57,879.82 2484.94,879.82 2149.21,2123.99 1909.4,1681.05 2036.36,1224.01 "/>
  <polygon class="fil0" points="1454.7,1917.39 1643.72,2267.23 639.36,2267.23 975.08,1023.06 1214.89,1465.99 1087.93,1923.03 "/>
  <polygon class="fil0" points="2109.69,2245.31 1105.33,394.57 986.84,817.76 1991.2,2691.07 "/>
 </g>
</svg>
