<?xml version="1.0" encoding="UTF-8"?>
<!DOCTYPE svg PUBLIC "-//W3C//DTD SVG 1.1//EN" "http://www.w3.org/Graphics/SVG/1.1/DTD/svg11.dtd">
<!-- Creator: CorelDRAW 2019 (64 Bit) -->
<svg xmlns="http://www.w3.org/2000/svg" xml:space="preserve" width="96.4843mm" height="96.4843mm" version="1.1" style="shape-rendering:geometricPrecision; text-rendering:geometricPrecision; image-rendering:optimizeQuality; fill-rule:evenodd; clip-rule:evenodd"
viewBox="0 0 5700.1 5700.1"
 xmlns:xlink="http://www.w3.org/1999/xlink">
 <defs>
  <style type="text/css">
   <![CDATA[
    .fil0 {fill:black}
    .fil1 {fill:black}
    .fil2 {fill:#2196F3}
   ]]>
  </style>
 </defs>
 <g id="Camada_x0020_1">
  <metadata id="CorelCorpID_0Corel-Layer"/>
  <path class="fil0" d="M2850.05 0c1574.04,0 2850.05,1276.01 2850.05,2850.05 0,904.66 -421.57,1710.75 -1078.88,2232.85l-128.36 -217.86c584.05,-476.75 957.05,-1202.27 957.05,-2014.99 0,-1435.86 -1163.99,-2599.85 -2599.85,-2599.85 -538.84,0 -1039.38,163.93 -1454.5,444.63l-119.62 -220.83c451.05,-299.42 992.16,-473.99 1574.12,-473.99zm1612.29 5200.32c-458.53,315.19 -1013.82,499.78 -1612.29,499.78 -1574.04,0 -2850.05,-1276.01 -2850.05,-2850.05 0,-924.98 440.76,-1746.91 1123.6,-2267.57l110.49 230.97c-599.45,476.27 -983.9,1211.51 -983.9,2036.61 0,1435.87 1163.99,2599.86 2599.86,2599.86 553.9,0 1067.26,-173.32 1489.01,-468.56l123.28 218.98z"/>
  <polygon class="fil1" points="3083.46,2270.95 2734.37,1624.87 4589.25,1624.87 3969.22,3922.64 3526.34,3104.61 3760.81,2260.54 "/>
  <polygon class="fil1" points="2686.57,3541.09 3035.66,4187.18 1180.78,4187.18 1800.81,1889.41 2243.69,2707.44 2009.23,3551.51 "/>
  <polygon class="fil2" points="3896.24,4146.71 2041.35,728.71 1822.51,1510.26 3677.4,4969.94 "/>
 </g>
</svg>
