<?xml version="1.0" encoding="UTF-8"?>
<!DOCTYPE svg PUBLIC "-//W3C//DTD SVG 1.1//EN" "http://www.w3.org/Graphics/SVG/1.1/DTD/svg11.dtd">
<!-- Creator: CorelDRAW 2019 (64 Bit) -->
<svg xmlns="http://www.w3.org/2000/svg" xml:space="preserve" width="107.416mm" height="93.0958mm" version="1.1" style="shape-rendering:geometricPrecision; text-rendering:geometricPrecision; image-rendering:optimizeQuality; fill-rule:evenodd; clip-rule:evenodd"
viewBox="0 0 2363.68 2048.56"
 xmlns:xlink="http://www.w3.org/1999/xlink">
 <defs>
  <style type="text/css">
   <![CDATA[
    .fil0 {fill:black}
    .fil1 {fill:#00A859}
    .fil2 {fill:black;fill-rule:nonzero}
   ]]>
  </style>
 </defs>
 <g id="Camada_x0020_1">
  <metadata id="CorelCorpID_0Corel-Layer"/>
  <g id="_2242533136368">
   <path class="fil0" d="M1181.84 0c407.75,0 738.3,330.55 738.3,738.3 0,234.35 -109.21,443.17 -279.48,578.42l-33.25 -56.44c151.3,-123.5 247.92,-311.45 247.92,-521.98 0,-371.96 -301.53,-673.49 -673.49,-673.49 -139.59,0 -269.25,42.46 -376.79,115.18l-30.99 -57.21c116.85,-77.56 257.02,-122.79 407.77,-122.79zm417.66 1347.14c-118.78,81.65 -262.63,129.47 -417.66,129.47 -407.75,0 -738.31,-330.55 -738.31,-738.31 0,-239.62 114.18,-452.54 291.07,-587.41l28.62 59.83c-155.29,123.38 -254.88,313.84 -254.88,527.58 0,371.96 301.53,673.49 673.49,673.49 143.49,0 276.47,-44.9 385.73,-121.38l31.94 56.73z"/>
   <polygon class="fil0" points="1242.3,588.29 1151.87,420.92 1632.38,420.92 1471.76,1016.16 1357.03,804.25 1417.77,585.59 "/>
   <polygon class="fil0" points="1139.49,917.32 1229.92,1084.69 749.42,1084.69 910.03,489.45 1024.76,701.36 964.02,920.02 "/>
   <polygon class="fil1" points="1452.85,1074.2 972.35,188.77 915.66,391.23 1396.16,1287.46 "/>
  </g>
  <path class="fil2" d="M-0 1700.71l112.38 0 0 343.31 86.21 0 0 -343.31 111.87 0 0 -79.03 -310.47 0 0 79.03zm432.6 47.21l-83.13 0 0 296.1 83.13 0 0 -153.44c0,-22.58 10.78,-61.07 51.32,-66.71 18.47,-3.08 34.9,-0.51 49.26,2.05 7.18,1.03 13.34,2.05 18.47,2.05l21.55 -74.92c-5.13,0 -17.45,-5.13 -36.95,-8.21 -7.18,-0.51 -15.39,-1.03 -24.63,-1.03 -34.9,1.54 -68.25,21.55 -79.03,39.51l0 -35.41zm254.02 148.82c0,-46.7 29.76,-77.49 70.31,-77.49 40.03,0.51 69.79,30.79 69.79,77.49l0 1.54c-0.51,45.67 -28.74,75.95 -69.79,75.95 -42.08,0 -70.31,-30.79 -70.31,-77.49zm221.69 -129.83c-10.27,-3.08 -21.55,-5.64 -33.36,-7.7 -4.11,-0.51 -10.78,0.51 -19.5,2.05 -31.3,-12.83 -75.44,-17.45 -105.71,-16.93 -7.18,0 -13.34,0.51 -18.99,1.03 -74.41,6.16 -130.35,73.38 -130.35,151.39 0,78 55.42,145.23 130.35,151.39 41.57,3.08 71.85,-10.78 94.94,-32.84l0 28.74 82.62 0 0 -277.11zm285.84 20.53c-7.18,-12.83 -40.03,-36.95 -89.29,-41.05 -10.26,-1.03 -21.04,-1.54 -30.79,-0.51l-7.7 1.54c-68.77,9.75 -126.24,75.95 -126.24,149.85 0,73.9 57.48,139.07 126.24,148.82 14.88,2.05 30.79,1.03 46.18,-2.57 32.33,-5.65 58.5,-19.5 72.36,-32.84 10.78,-10.78 18.99,-21.04 23.61,-28.74l-53.37 -35.92c-7.7,10.26 -22.07,20.01 -39,23.61 -10.26,3.59 -22.07,5.13 -33.36,3.08 -33.35,-5.64 -56.96,-34.38 -56.96,-75.95 0.51,-41.57 23.61,-70.82 56.96,-76.46 14.37,-1.54 26.69,0 37.46,5.13 2.05,2.05 3.59,4.11 5.13,6.16l4.1 7.7 64.66 7.18c4.1,-10.78 5.13,-41.57 0,-59.02zm337.15 -38.49l-111.36 0 -101.09 107.25 0 -257.61 -83.13 0 0 445.43 83.13 0 0 -115.98 117.52 115.98 110.85 0 -153.44 -151.39 137.53 -143.69zm304.83 -127.27l-269.93 0 0 422.34 269.93 0 0 -79.03 -183.72 0 0 -92.88 153.44 0 0 -79.03 -153.44 0 0 -92.37 183.72 0 0 -79.03zm124.7 126.24l-83.13 0 0 296.1 83.13 0 0 -153.44c0,-22.58 10.78,-61.07 51.32,-66.71 18.47,-3.08 34.9,-0.51 49.26,2.05 7.18,1.03 13.34,2.05 18.47,2.05l21.55 -74.92c-5.13,0 -17.45,-5.13 -36.95,-8.21 -7.18,-0.51 -15.39,-1.03 -24.63,-1.03 -34.9,1.54 -68.25,21.55 -79.03,39.51l0 -35.41zm262.23 0l-83.13 0 0 296.1 83.13 0 0 -153.44c0,-22.58 10.78,-61.07 51.32,-66.71 18.47,-3.08 34.9,-0.51 49.26,2.05 7.18,1.03 13.34,2.05 18.47,2.05l21.55 -74.92c-5.13,0 -17.45,-5.13 -36.95,-8.21 -7.18,-0.51 -15.39,-1.03 -24.63,-1.03 -34.9,1.54 -68.25,21.55 -79.03,39.51l0 -35.41z"/>
 </g>
</svg>
