<?xml version="1.0" encoding="UTF-8"?>
<!DOCTYPE svg PUBLIC "-//W3C//DTD SVG 1.1//EN" "http://www.w3.org/Graphics/SVG/1.1/DTD/svg11.dtd">
<!-- Creator: CorelDRAW 2019 (64 Bit) -->
<svg xmlns="http://www.w3.org/2000/svg" xml:space="preserve" width="151.662mm" height="40mm" version="1.1" style="shape-rendering:geometricPrecision; text-rendering:geometricPrecision; image-rendering:optimizeQuality; fill-rule:evenodd; clip-rule:evenodd"
viewBox="0 0 5336.72 1407.53"
 xmlns:xlink="http://www.w3.org/1999/xlink">
 <defs>
  <style type="text/css">
   <![CDATA[
    .fil0 {fill:black}
    .fil1 {fill:white}
    .fil2 {fill:black;fill-rule:nonzero}
   ]]>
  </style>
 </defs>
 <g id="Camada_x0020_1">
  <metadata id="CorelCorpID_0Corel-Layer"/>
  <g id="_2242447164768">
   <path class="fil0" d="M703.77 0c388.68,0 703.76,315.09 703.76,703.77 0,223.39 -104.1,422.44 -266.41,551.36l-31.7 -53.8c144.22,-117.72 236.32,-296.88 236.32,-497.56 0,-354.56 -287.42,-641.99 -641.98,-641.99 -133.06,0 -256.66,40.48 -359.16,109.79l-29.54 -54.53c111.38,-73.94 244.99,-117.04 388.7,-117.04zm398.12 1284.12c-113.23,77.83 -250.34,123.41 -398.12,123.41 -388.68,0 -703.77,-315.09 -703.77,-703.77 0,-228.41 108.84,-431.37 277.45,-559.94l27.28 57.03c-148.02,117.61 -242.95,299.16 -242.95,502.9 0,354.56 287.42,641.99 641.99,641.99 136.77,0 263.54,-42.8 367.68,-115.7l30.44 54.07z"/>
   <polygon class="fil0" points="761.4,560.77 675.2,401.23 1133.23,401.23 980.12,968.62 870.76,766.62 928.66,558.2 "/>
   <polygon class="fil0" points="663.4,874.4 749.6,1033.94 291.57,1033.94 444.68,466.55 554.04,668.55 496.14,876.98 "/>
   <polygon class="fil1" points="962.1,1023.95 504.08,179.94 450.04,372.93 908.07,1227.23 "/>
  </g>
  <path class="fil2" d="M1556.93 466.83l179.71 0 0 549 137.86 0 0 -549 178.9 0 0 -126.38 -496.47 0 0 126.38zm691.78 75.5l-132.94 0 0 473.5 132.94 0 0 -245.36c0,-36.11 17.23,-97.65 82.06,-106.68 29.54,-4.92 55.8,-0.82 78.78,3.28 11.49,1.64 21.33,3.28 29.54,3.28l34.47 -119.81c-8.21,0 -27.9,-8.21 -59.08,-13.13 -11.49,-0.82 -24.62,-1.64 -39.39,-1.64 -55.8,2.46 -109.14,34.47 -126.38,63.19l0 -56.62zm406.21 237.98c0,-74.68 47.6,-123.92 112.43,-123.92 64.01,0.82 111.6,49.24 111.6,123.92l0 2.46c-0.82,73.03 -45.95,121.45 -111.6,121.45 -67.29,0 -112.43,-49.24 -112.43,-123.92zm354.51 -207.62c-16.42,-4.92 -34.47,-9.03 -53.34,-12.31 -6.57,-0.82 -17.23,0.82 -31.18,3.28 -50.06,-20.51 -120.63,-27.9 -169.05,-27.08 -11.49,0 -21.33,0.82 -30.36,1.64 -118.99,9.85 -208.44,117.35 -208.44,242.08 0,124.74 88.63,232.24 208.44,242.08 66.47,4.92 114.89,-17.24 151.82,-52.52l0 45.96 132.12 0 0 -443.14zm457.09 32.82c-11.49,-20.51 -64.01,-59.08 -142.79,-65.65 -16.41,-1.64 -33.64,-2.46 -49.24,-0.82l-12.31 2.46c-109.96,15.59 -201.88,121.45 -201.88,239.62 0,118.17 91.91,222.39 201.88,237.98 23.8,3.28 49.24,1.64 73.85,-4.1 51.7,-9.03 93.55,-31.18 115.71,-52.52 17.23,-17.23 30.36,-33.64 37.75,-45.95l-85.35 -57.44c-12.31,16.41 -35.29,32 -62.37,37.75 -16.41,5.74 -35.29,8.21 -53.34,4.92 -53.34,-9.03 -91.09,-54.98 -91.09,-121.45 0.82,-66.47 37.75,-113.25 91.09,-122.27 22.98,-2.46 42.67,0 59.91,8.21 3.28,3.28 5.74,6.57 8.21,9.85l6.56 12.31 103.4 11.49c6.56,-17.24 8.21,-66.47 0,-94.37zm539.15 -61.54l-178.07 0 -161.66 171.51 0 -411.95 -132.94 0 0 712.3 132.94 0 0 -185.46 187.92 185.46 177.25 0 -245.37 -242.08 219.93 -229.77zm487.45 -203.51l-431.65 0 0 675.37 431.65 0 0 -126.38 -293.78 0 0 -148.53 245.37 0 0 -126.38 -245.37 0 0 -147.71 293.78 0 0 -126.38zm199.41 201.87l-132.94 0 0 473.5 132.94 0 0 -245.36c0,-36.11 17.23,-97.65 82.06,-106.68 29.54,-4.92 55.8,-0.82 78.78,3.28 11.49,1.64 21.33,3.28 29.54,3.28l34.47 -119.81c-8.21,0 -27.9,-8.21 -59.08,-13.13 -11.49,-0.82 -24.62,-1.64 -39.39,-1.64 -55.8,2.46 -109.14,34.47 -126.38,63.19l0 -56.62zm419.34 0l-132.94 0 0 473.5 132.94 0 0 -245.36c0,-36.11 17.23,-97.65 82.06,-106.68 29.54,-4.92 55.8,-0.82 78.78,3.28 11.49,1.64 21.33,3.28 29.54,3.28l34.47 -119.81c-8.21,0 -27.9,-8.21 -59.08,-13.13 -11.49,-0.82 -24.62,-1.64 -39.39,-1.64 -55.8,2.46 -109.14,34.47 -126.38,63.19l0 -56.62z"/>
 </g>
</svg>
