<?xml version="1.0" encoding="UTF-8"?>
<!DOCTYPE svg PUBLIC "-//W3C//DTD SVG 1.1//EN" "http://www.w3.org/Graphics/SVG/1.1/DTD/svg11.dtd">
<!-- Creator: CorelDRAW 2019 (64 Bit) -->
<svg xmlns="http://www.w3.org/2000/svg" xml:space="preserve" width="181.272mm" height="67.1037mm" version="1.1" style="shape-rendering:geometricPrecision; text-rendering:geometricPrecision; image-rendering:optimizeQuality; fill-rule:evenodd; clip-rule:evenodd"
viewBox="0 0 8838.43 3271.83"
 xmlns:xlink="http://www.w3.org/1999/xlink">
 <defs>
  <style type="text/css">
   <![CDATA[
    .fil0 {fill:black}
    .fil1 {fill:white}
    .fil2 {fill:black;fill-rule:nonzero}
   ]]>
  </style>
 </defs>
 <g id="Camada_x0020_1">
  <metadata id="CorelCorpID_0Corel-Layer"/>
  <g id="_2242560203824">
   <path class="fil0" d="M1635.92 0c903.49,0 1635.91,732.42 1635.91,1635.91 0,519.27 -241.98,981.96 -619.27,1281.65l-73.68 -125.05c335.24,-273.65 549.34,-690.1 549.34,-1156.6 0,-824.18 -668.12,-1492.3 -1492.3,-1492.3 -309.29,0 -596.6,94.1 -834.87,255.21l-68.66 -126.76c258.9,-171.87 569.5,-272.07 903.54,-272.07zm925.45 2984.96c-263.19,180.92 -581.93,286.87 -925.45,286.87 -903.49,0 -1635.92,-732.42 -1635.92,-1635.92 0,-530.93 252.99,-1002.72 644.94,-1301.57l63.42 132.57c-344.08,273.38 -564.75,695.4 -564.75,1169 0,824.18 668.12,1492.31 1492.31,1492.31 317.94,0 612.6,-99.49 854.69,-268.95l70.76 125.69z"/>
   <polygon class="fil0" points="1769.89,1303.52 1569.51,932.67 2634.21,932.67 2278.31,2251.58 2024.1,1782.03 2158.68,1297.54 "/>
   <polygon class="fil0" points="1542.08,2032.57 1742.46,2403.42 677.76,2403.42 1033.66,1084.51 1287.87,1554.06 1153.29,2038.55 "/>
   <polygon class="fil1" points="2236.42,2380.19 1171.73,418.28 1046.11,866.88 2110.81,2852.73 "/>
  </g>
  <path class="fil2" d="M3601.06 1363.68l249.02 0 0 760.7 191.03 0 0 -760.7 247.88 0 0 -175.11 -687.93 0 0 175.11zm958.55 104.61l-184.21 0 0 656.09 184.21 0 0 -339.98c0,-50.04 23.88,-135.31 113.71,-147.82 40.93,-6.82 77.32,-1.14 109.16,4.55 15.92,2.28 29.56,4.55 40.93,4.55l47.76 -166.02c-11.37,0 -38.66,-11.37 -81.87,-18.19 -15.92,-1.14 -34.11,-2.27 -54.58,-2.27 -77.32,3.41 -151.23,47.76 -175.11,87.55l0 -78.46zm562.85 329.75c0,-103.47 65.95,-171.7 155.78,-171.7 88.69,1.14 154.64,68.23 154.64,171.7l0 3.41c-1.14,101.2 -63.67,168.29 -154.64,168.29 -93.24,0 -155.78,-68.23 -155.78,-171.7zm491.22 -287.68c-22.75,-6.82 -47.76,-12.51 -73.91,-17.06 -9.1,-1.14 -23.88,1.14 -43.21,4.55 -69.36,-28.43 -167.15,-38.66 -234.24,-37.52 -15.92,0 -29.56,1.14 -42.07,2.27 -164.87,13.65 -288.82,162.6 -288.82,335.44 0,172.84 122.81,321.79 288.82,335.44 92.1,6.82 159.19,-23.88 210.36,-72.78l0 63.68 183.07 0 0 -614.02zm633.35 45.48c-15.92,-28.43 -88.7,-81.87 -197.85,-90.96 -22.74,-2.28 -46.62,-3.41 -68.22,-1.14l-17.06 3.41c-152.37,21.6 -279.72,168.29 -279.72,332.03 0,163.74 127.36,308.15 279.72,329.75 32.97,4.55 68.22,2.27 102.33,-5.69 71.64,-12.51 129.63,-43.21 160.33,-72.78 23.88,-23.88 42.07,-46.62 52.31,-63.67l-118.26 -79.6c-17.06,22.74 -48.89,44.35 -86.42,52.31 -22.74,7.96 -48.89,11.37 -73.91,6.82 -73.91,-12.51 -126.21,-76.18 -126.21,-168.29 1.14,-92.1 52.31,-156.92 126.21,-169.42 31.84,-3.41 59.13,0 83.01,11.37 4.54,4.55 7.96,9.1 11.37,13.64l9.09 17.06 143.27 15.92c9.09,-23.88 11.37,-92.1 0,-130.77zm747.06 -85.28l-246.74 0 -224 237.65 0 -570.81 -184.21 0 0 986.98 184.21 0 0 -256.98 260.39 256.98 245.61 0 -339.99 -335.44 304.74 -318.38zm675.43 -282l-598.1 0 0 935.81 598.1 0 0 -175.11 -407.07 0 0 -205.81 339.99 0 0 -175.11 -339.99 0 0 -204.68 407.07 0 0 -175.11zm276.31 279.72l-184.21 0 0 656.09 184.21 0 0 -339.98c0,-50.04 23.88,-135.31 113.71,-147.82 40.93,-6.82 77.32,-1.14 109.16,4.55 15.92,2.28 29.56,4.55 40.93,4.55l47.76 -166.02c-11.37,0 -38.66,-11.37 -81.87,-18.19 -15.92,-1.14 -34.11,-2.27 -54.58,-2.27 -77.32,3.41 -151.23,47.76 -175.11,87.55l0 -78.46zm581.05 0l-184.21 0 0 656.09 184.21 0 0 -339.98c0,-50.04 23.88,-135.31 113.71,-147.82 40.93,-6.82 77.32,-1.14 109.16,4.55 15.92,2.28 29.56,4.55 40.93,4.55l47.76 -166.02c-11.37,0 -38.66,-11.37 -81.87,-18.19 -15.92,-1.14 -34.11,-2.27 -54.58,-2.27 -77.32,3.41 -151.23,47.76 -175.11,87.55l0 -78.46z"/>
 </g>
</svg>
