<?xml version="1.0" encoding="UTF-8"?>
<!DOCTYPE svg PUBLIC "-//W3C//DTD SVG 1.1//EN" "http://www.w3.org/Graphics/SVG/1.1/DTD/svg11.dtd">
<!-- Creator: CorelDRAW 2019 (64 Bit) -->
<svg xmlns="http://www.w3.org/2000/svg" xml:space="preserve" width="107.416mm" height="20.4485mm" version="1.1" style="shape-rendering:geometricPrecision; text-rendering:geometricPrecision; image-rendering:optimizeQuality; fill-rule:evenodd; clip-rule:evenodd"
viewBox="0 0 5991.99 1140.68"
 xmlns:xlink="http://www.w3.org/1999/xlink">
 <defs>
  <style type="text/css">
   <![CDATA[
    .fil0 {fill:black;fill-rule:nonzero}
   ]]>
  </style>
 </defs>
 <g id="Camada_x0020_1">
  <metadata id="CorelCorpID_0Corel-Layer"/>
  <path class="fil0" d="M-0 258.88l284.89 0 0 870.31 218.55 0 0 -870.31 283.6 0 0 -200.34 -787.05 0 0 200.34zm1096.67 119.68l-210.75 0 0 750.63 210.75 0 0 -388.97c0,-57.24 27.32,-154.81 130.09,-169.12 46.83,-7.8 88.46,-1.3 124.89,5.2 18.21,2.61 33.82,5.2 46.83,5.2l54.64 -189.94c-13.01,0 -44.23,-13.01 -93.67,-20.81 -18.21,-1.3 -39.03,-2.6 -62.44,-2.6 -88.46,3.9 -173.02,54.64 -200.34,100.17l0 -89.77zm643.95 377.27c0,-118.38 75.45,-196.44 178.23,-196.44 101.47,1.31 176.92,78.06 176.92,196.44l0 3.9c-1.3,115.78 -72.85,192.54 -176.92,192.54 -106.67,0 -178.23,-78.06 -178.23,-196.44zm562 -329.13c-26.02,-7.8 -54.64,-14.31 -84.56,-19.51 -10.41,-1.3 -27.32,1.3 -49.43,5.2 -79.36,-32.52 -191.24,-44.23 -267.99,-42.93 -18.21,0 -33.82,1.3 -48.14,2.6 -188.63,15.61 -330.43,186.03 -330.43,383.77 0,197.74 140.5,368.16 330.43,383.77 105.37,7.8 182.13,-27.32 240.67,-83.26l0 72.85 209.45 0 0 -702.49zm724.6 52.03c-18.21,-32.52 -101.47,-93.67 -226.36,-104.07 -26.02,-2.61 -53.33,-3.9 -78.05,-1.3l-19.51 3.9c-174.32,24.72 -320.03,192.54 -320.03,379.87 0,187.33 145.71,352.55 320.03,377.27 37.73,5.2 78.05,2.6 117.08,-6.5 81.96,-14.31 148.3,-49.43 183.43,-83.26 27.32,-27.32 48.14,-53.33 59.84,-72.85l-135.3 -91.07c-19.51,26.02 -55.94,50.73 -98.87,59.84 -26.02,9.1 -55.94,13.01 -84.56,7.8 -84.56,-14.31 -144.4,-87.16 -144.4,-192.54 1.3,-105.37 59.84,-179.53 144.4,-193.83 36.43,-3.9 67.65,0 94.97,13.01 5.2,5.2 9.1,10.41 13.01,15.61l10.4 19.52 163.92 18.21c10.4,-27.32 13.01,-105.37 0,-149.61zm854.7 -97.56l-282.3 0 -256.28 271.89 0 -653.06 -210.75 0 0 1129.19 210.75 0 0 -294 297.91 294 281 0 -388.97 -383.77 348.64 -364.25zm772.75 -322.63l-684.28 0 0 1070.65 684.28 0 0 -200.34 -465.73 0 0 -235.47 388.97 0 0 -200.34 -388.97 0 0 -234.17 465.73 0 0 -200.34zm316.12 320.02l-210.75 0 0 750.63 210.75 0 0 -388.97c0,-57.24 27.32,-154.81 130.09,-169.12 46.83,-7.8 88.46,-1.3 124.89,5.2 18.21,2.61 33.82,5.2 46.83,5.2l54.64 -189.94c-13.01,0 -44.23,-13.01 -93.67,-20.81 -18.21,-1.3 -39.03,-2.6 -62.44,-2.6 -88.46,3.9 -173.02,54.64 -200.34,100.17l0 -89.77zm664.77 0l-210.75 0 0 750.63 210.75 0 0 -388.97c0,-57.24 27.32,-154.81 130.09,-169.12 46.83,-7.8 88.46,-1.3 124.89,5.2 18.21,2.61 33.82,5.2 46.83,5.2l54.64 -189.94c-13.01,0 -44.23,-13.01 -93.67,-20.81 -18.21,-1.3 -39.03,-2.6 -62.44,-2.6 -88.46,3.9 -173.02,54.64 -200.34,100.17l0 -89.77z"/>
 </g>
</svg>
