<?xml version="1.0" encoding="UTF-8"?>
<!DOCTYPE svg PUBLIC "-//W3C//DTD SVG 1.1//EN" "http://www.w3.org/Graphics/SVG/1.1/DTD/svg11.dtd">
<!-- Creator: CorelDRAW 2019 (64 Bit) -->
<svg xmlns="http://www.w3.org/2000/svg" xml:space="preserve" width="181.229mm" height="67.0559mm" version="1.1" style="shape-rendering:geometricPrecision; text-rendering:geometricPrecision; image-rendering:optimizeQuality; fill-rule:evenodd; clip-rule:evenodd"
viewBox="0 0 7337.26 2714.83"
 xmlns:xlink="http://www.w3.org/1999/xlink">
 <defs>
  <style type="text/css">
   <![CDATA[
    .fil0 {fill:black}
    .fil1 {fill:#00A859}
    .fil2 {fill:black;fill-rule:nonzero}
   ]]>
  </style>
 </defs>
 <g id="Camada_x0020_1">
  <metadata id="CorelCorpID_0Corel-Layer"/>
  <g id="_2243935139888">
   <path class="fil0" d="M1360.84 0c747.27,0 1357.42,606.72 1357.42,1357.42 0,431.91 -202.24,815.82 -514.17,1062.62l-61.7 -102.83c277.65,-226.24 455.9,-572.45 455.9,-959.79 0,-685.57 -555.31,-1240.87 -1237.45,-1240.87 -257.09,0 -497.03,78.84 -695.85,212.53l-54.85 -102.83c212.53,-143.97 473.04,-226.24 750.69,-226.24zm767.84 2478.31c-219.38,150.83 -483.32,236.52 -767.84,236.52 -750.69,0 -1360.84,-606.72 -1360.84,-1357.41 0,-442.19 212.52,-832.96 538.17,-1079.76l51.42 109.69c-284.51,226.24 -469.61,575.87 -469.61,970.08 0,685.56 555.31,1237.44 1240.87,1237.44 263.95,0 507.32,-82.27 709.56,-222.81l58.28 106.26z"/>
   <polygon class="fil0" points="1470.54,1079.76 1306,774.69 2186.95,774.69 1892.16,1868.16 1683.06,1477.39 1792.75,1076.34 "/>
   <polygon class="fil0" points="1282,1686.49 1446.54,1994.99 562.16,1994.99 860.38,898.09 1069.48,1288.86 959.79,1689.91 "/>
   <polygon class="fil1" points="1857.88,1974.43 973.5,346.21 870.67,719.84 1755.04,2368.62 "/>
  </g>
  <path class="fil2" d="M2987.35 1018.06l205.67 0 0 634.15 157.68 0 0 -634.15 205.67 0 0 -143.97 -569.02 0 0 143.97zm795.25 89.12l-154.25 0 0 545.02 154.25 0 0 -284.51c0,-41.13 20.57,-113.12 95.98,-123.4 30.85,-3.43 61.7,0 89.12,3.43 13.71,3.43 24,6.86 34.28,6.86l37.7 -140.54c-6.85,0 -30.85,-6.85 -65.13,-13.71 -13.71,0 -30.85,-3.43 -47.99,-3.43 -61.7,3.43 -123.4,41.13 -143.97,75.41l0 -65.13zm466.19 270.8c0,-85.7 54.85,-140.54 130.26,-140.54 75.41,0 130.26,54.85 130.26,140.54l0 3.43c-3.43,85.7 -54.85,140.54 -130.26,140.54 -75.41,0 -130.26,-54.85 -130.26,-143.97zm407.91 -236.52c-17.14,-6.86 -37.7,-10.28 -61.7,-13.71 -6.85,-3.43 -17.14,0 -34.28,3.43 -58.28,-24 -140.54,-34.28 -195.39,-30.85 -13.71,0 -24,0 -34.28,0 -137.11,13.71 -239.95,137.11 -239.95,277.65 0,143.97 102.83,267.37 239.95,281.08 75.41,3.43 133.69,-20.57 174.82,-61.7l0 54.85 150.82 0 0 -510.74zm527.89 37.7c-13.71,-24 -75.41,-68.56 -164.54,-75.41 -20.57,-3.43 -37.7,-3.43 -58.27,0l-13.71 0c-126.83,20.57 -233.09,140.54 -233.09,277.65 0,133.69 106.26,253.66 233.09,274.23 27.42,3.43 58.27,0 85.7,-6.86 58.27,-10.28 106.26,-34.28 133.69,-58.27 20.57,-20.57 34.28,-41.13 41.13,-54.85l-95.98 -65.13c-13.71,17.14 -41.13,37.7 -71.98,44.56 -20.57,6.86 -41.13,6.86 -61.7,3.43 -61.7,-10.28 -106.26,-61.7 -106.26,-140.54 3.43,-75.41 44.56,-130.26 106.26,-140.54 27.42,0 47.99,0 68.56,10.28 3.43,3.43 6.86,6.86 10.28,13.71l6.86 13.71 119.97 10.28c6.85,-17.14 10.28,-75.41 0,-106.26zm620.44 -71.98l-205.67 0 -185.1 198.82 0 -476.47 -154.25 0 0 822.68 154.25 0 0 -215.95 215.95 215.95 202.24 0 -281.08 -281.08 253.66 -263.94zm558.73 -233.09l-497.03 0 0 778.11 497.03 0 0 -147.4 -335.93 0 0 -171.39 281.08 0 0 -143.97 -281.08 0 0 -171.39 335.93 0 0 -143.97zm229.67 233.09l-150.82 0 0 545.02 150.82 0 0 -284.51c0,-41.13 20.57,-113.12 95.98,-123.4 34.28,-3.43 65.13,0 89.12,3.43 13.71,3.43 24,6.86 34.28,6.86l41.13 -140.54c-10.28,0 -34.28,-6.85 -68.56,-13.71 -13.71,0 -27.42,-3.43 -44.56,-3.43 -65.13,3.43 -126.83,41.13 -147.4,75.41l0 -65.13zm483.32 0l-154.25 0 0 545.02 154.25 0 0 -284.51c0,-41.13 20.57,-113.12 95.98,-123.4 30.85,-3.43 61.7,0 89.12,3.43 13.71,3.43 24,6.86 34.28,6.86l41.13 -140.54c-10.28,0 -34.28,-6.85 -68.56,-13.71 -13.71,0 -30.85,-3.43 -47.99,-3.43 -61.7,3.43 -123.4,41.13 -143.97,75.41l0 -65.13z"/>
 </g>
</svg>
