<?xml version="1.0" encoding="UTF-8"?>
<!DOCTYPE svg PUBLIC "-//W3C//DTD SVG 1.1//EN" "http://www.w3.org/Graphics/SVG/1.1/DTD/svg11.dtd">
<!-- Creator: CorelDRAW 2019 (64 Bit) -->
<svg xmlns="http://www.w3.org/2000/svg" xml:space="preserve" width="151.216mm" height="40mm" version="1.1" style="shape-rendering:geometricPrecision; text-rendering:geometricPrecision; image-rendering:optimizeQuality; fill-rule:evenodd; clip-rule:evenodd"
viewBox="0 0 5899.37 1560.51"
 xmlns:xlink="http://www.w3.org/1999/xlink">
 <defs>
  <style type="text/css">
   <![CDATA[
    .fil0 {fill:black}
    .fil1 {fill:#00A859}
    .fil2 {fill:black;fill-rule:nonzero}
   ]]>
  </style>
 </defs>
 <g id="Camada_x0020_1">
  <metadata id="CorelCorpID_0Corel-Layer"/>
  <g id="_2242532638448">
   <path class="fil0" d="M781.24 0c429,0 779.27,348.75 779.27,780.26 0,248.26 -116.1,468.94 -295.18,610.8l-35.42 -59.11c159.4,-130.04 261.73,-329.05 261.73,-551.7 0,-394.07 -318.79,-713.27 -710.4,-713.27 -147.59,0 -285.34,45.32 -399.48,122.16l-31.49 -59.11c122.01,-82.75 271.56,-130.04 430.96,-130.04zm440.8 1424.56c-125.94,86.7 -277.47,135.96 -440.8,135.96 -430.96,0 -781.24,-348.75 -781.24,-780.26 0,-254.18 122,-478.79 308.95,-620.66l29.52 63.05c-163.33,130.05 -269.6,331.02 -269.6,557.61 0,394.07 318.79,711.29 712.37,711.29 151.53,0 291.24,-47.29 407.35,-128.07l33.45 61.08z"/>
   <polygon class="fil0" points="844.21,620.66 749.76,445.3 1255.49,445.3 1086.26,1073.83 966.22,849.22 1029.19,618.69 "/>
   <polygon class="fil0" points="735.98,969.41 830.44,1146.74 322.73,1146.74 493.93,516.23 613.97,740.85 551,971.38 "/>
   <polygon class="fil1" points="1066.58,1134.92 558.87,199 499.84,413.77 1007.54,1361.51 "/>
  </g>
  <path class="fil2" d="M1707.76 528.94l198.18 0 0 611.07 151.94 0 0 -611.07 198.18 0 0 -138.73 -548.31 0 0 138.73zm766.31 85.88l-148.64 0 0 525.19 148.64 0 0 -274.15c0,-39.64 19.82,-109 92.49,-118.91 29.73,-3.3 59.46,0 85.88,3.3 13.21,3.3 23.12,6.61 33.03,6.61l36.33 -135.43c-6.6,0 -29.73,-6.6 -62.76,-13.21 -13.21,0 -29.73,-3.3 -46.25,-3.3 -59.46,3.3 -118.91,39.64 -138.73,72.67l0 -62.76zm449.22 260.94c0,-82.58 52.85,-135.43 125.52,-135.43 72.67,0 125.52,52.85 125.52,135.43l0 3.3c-3.3,82.58 -52.85,135.43 -125.52,135.43 -72.67,0 -125.52,-52.85 -125.52,-138.73zm393.07 -227.91c-16.51,-6.61 -36.33,-9.91 -59.46,-13.21 -6.6,-3.3 -16.51,0 -33.03,3.3 -56.15,-23.12 -135.43,-33.03 -188.28,-29.73 -13.21,0 -23.12,0 -33.03,0 -132.12,13.21 -231.22,132.12 -231.22,267.55 0,138.73 99.09,257.64 231.22,270.85 72.67,3.3 128.82,-19.82 168.46,-59.46l0 52.85 145.33 0 0 -492.16zm508.68 36.33c-13.21,-23.12 -72.67,-66.06 -158.55,-72.67 -19.82,-3.3 -36.33,-3.3 -56.15,0l-13.21 0c-122.22,19.82 -224.61,135.43 -224.61,267.55 0,128.82 102.39,244.43 224.61,264.25 26.42,3.3 56.15,0 82.58,-6.61 56.15,-9.91 102.39,-33.03 128.82,-56.15 19.82,-19.82 33.03,-39.64 39.64,-52.85l-92.49 -62.76c-13.21,16.51 -39.64,36.33 -69.36,42.94 -19.82,6.61 -39.64,6.61 -59.46,3.3 -59.46,-9.91 -102.4,-59.46 -102.4,-135.43 3.3,-72.67 42.94,-125.52 102.4,-135.43 26.42,0 46.24,0 66.06,9.91 3.3,3.3 6.61,6.61 9.91,13.21l6.61 13.21 115.61 9.91c6.6,-16.52 9.91,-72.67 0,-102.4zm597.86 -69.36l-198.18 0 -178.37 191.58 0 -459.13 -148.64 0 0 792.74 148.64 0 0 -208.09 208.09 208.09 194.88 0 -270.85 -270.85 244.43 -254.34zm538.4 -224.61l-478.94 0 0 749.8 478.94 0 0 -142.03 -323.7 0 0 -165.15 270.85 0 0 -138.73 -270.85 0 0 -165.15 323.7 0 0 -138.73zm221.31 224.61l-145.33 0 0 525.19 145.33 0 0 -274.15c0,-39.64 19.82,-109 92.49,-118.91 33.03,-3.3 62.76,0 85.88,3.3 13.21,3.3 23.12,6.61 33.03,6.61l39.64 -135.43c-9.91,0 -33.03,-6.6 -66.06,-13.21 -13.21,0 -26.42,-3.3 -42.94,-3.3 -62.76,3.3 -122.22,39.64 -142.03,72.67l0 -62.76zm465.73 0l-148.64 0 0 525.19 148.64 0 0 -274.15c0,-39.64 19.82,-109 92.49,-118.91 29.73,-3.3 59.46,0 85.88,3.3 13.21,3.3 23.12,6.61 33.03,6.61l39.64 -135.43c-9.91,0 -33.03,-6.6 -66.06,-13.21 -13.21,0 -29.73,-3.3 -46.24,-3.3 -59.46,3.3 -118.91,39.64 -138.73,72.67l0 -62.76z"/>
 </g>
</svg>
