<?xml version="1.0" encoding="UTF-8"?>
<!DOCTYPE svg PUBLIC "-//W3C//DTD SVG 1.1//EN" "http://www.w3.org/Graphics/SVG/1.1/DTD/svg11.dtd">
<!-- Creator: CorelDRAW 2019 (64 Bit) -->
<svg xmlns="http://www.w3.org/2000/svg" xml:space="preserve" width="107.416mm" height="91.1774mm" version="1.1" style="shape-rendering:geometricPrecision; text-rendering:geometricPrecision; image-rendering:optimizeQuality; fill-rule:evenodd; clip-rule:evenodd"
viewBox="0 0 6277.99 5328.91"
 xmlns:xlink="http://www.w3.org/1999/xlink">
 <defs>
  <style type="text/css">
   <![CDATA[
    .fil0 {fill:black}
    .fil1 {fill:white}
    .fil2 {fill:black;fill-rule:nonzero}
   ]]>
  </style>
 </defs>
 <g id="Camada_x0020_1">
  <metadata id="CorelCorpID_0Corel-Layer"/>
  <g id="_2242532651376">
   <path class="fil0" d="M3139 0c1083.01,0 1960.95,877.95 1960.95,1960.95 0,622.44 -290.06,1177.07 -742.32,1536.3l-88.32 -149.9c401.85,-328.03 658.49,-827.21 658.49,-1386.4 0,-987.93 -800.87,-1788.81 -1788.81,-1788.81 -370.74,0 -715.14,112.79 -1000.76,305.92l-82.3 -151.94c310.35,-206.01 682.65,-326.13 1083.06,-326.13zm1109.33 3578.05c-315.49,216.86 -697.55,343.86 -1109.33,343.86 -1083.01,0 -1960.96,-877.95 -1960.96,-1960.96 0,-636.43 303.26,-1201.95 773.09,-1560.19l76.02 158.91c-412.44,327.7 -676.96,833.57 -676.96,1401.27 0,987.94 800.87,1788.81 1788.81,1788.81 381.11,0 734.32,-119.25 1024.5,-322.39l84.82 150.67z"/>
   <polygon class="fil0" points="3299.59,1562.51 3059.4,1117.98 4335.64,1117.98 3909.04,2698.94 3604.31,2136.1 3765.63,1555.35 "/>
   <polygon class="fil0" points="3026.51,2436.42 3266.71,2880.96 1990.47,2880.96 2417.07,1300 2721.8,1862.83 2560.48,2443.59 "/>
   <polygon class="fil1" points="3858.82,2853.11 2582.58,501.39 2432.01,1039.13 3708.25,3419.54 "/>
  </g>
  <path class="fil2" d="M-0 4405.02l298.49 0 0 911.85 228.98 0 0 -911.85 297.14 0 0 -209.9 -824.61 0 0 209.9zm1149.01 125.39l-220.81 0 0 786.45 220.81 0 0 -407.53c0,-59.98 28.62,-162.2 136.3,-177.2 49.07,-8.18 92.68,-1.36 130.85,5.45 19.08,2.73 35.44,5.45 49.07,5.45l57.25 -199c-13.63,0 -46.34,-13.63 -98.14,-21.81 -19.08,-1.36 -40.89,-2.72 -65.42,-2.72 -92.68,4.09 -181.28,57.25 -209.9,104.95l0 -94.05zm674.68 395.27c0,-124.03 79.05,-205.82 186.73,-205.82 106.31,1.37 185.37,81.78 185.37,205.82l0 4.09c-1.36,121.3 -76.32,201.72 -185.37,201.72 -111.77,0 -186.73,-81.78 -186.73,-205.82zm588.82 -344.84c-27.26,-8.18 -57.25,-14.99 -88.6,-20.44 -10.91,-1.36 -28.62,1.36 -51.79,5.45 -83.14,-34.07 -200.36,-46.34 -280.78,-44.98 -19.08,0 -35.44,1.36 -50.43,2.72 -197.63,16.36 -346.2,194.91 -346.2,402.09 0,207.18 147.21,385.73 346.2,402.09 110.4,8.18 190.82,-28.63 252.16,-87.24l0 76.33 219.45 0 0 -736.02zm759.19 54.52c-19.08,-34.07 -106.32,-98.14 -237.17,-109.04 -27.26,-2.73 -55.88,-4.09 -81.78,-1.36l-20.44 4.09c-182.64,25.9 -335.3,201.72 -335.3,398 0,196.27 152.66,369.38 335.3,395.27 39.53,5.45 81.78,2.72 122.67,-6.81 85.87,-15 155.38,-51.79 192.19,-87.24 28.62,-28.62 50.43,-55.88 62.7,-76.32l-141.75 -95.41c-20.44,27.26 -58.61,53.16 -103.59,62.7 -27.26,9.54 -58.61,13.63 -88.6,8.18 -88.59,-14.99 -151.29,-91.32 -151.29,-201.72 1.36,-110.4 62.7,-188.1 151.29,-203.09 38.16,-4.09 70.88,0 99.5,13.63 5.45,5.45 9.54,10.91 13.63,16.35l10.9 20.45 171.74 19.08c10.9,-28.63 13.63,-110.4 0,-156.75zm895.49 -102.22l-295.77 0 -268.51 284.87 0 -684.23 -220.81 0 0 1183.08 220.81 0 0 -308.04 312.13 308.04 294.41 0 -407.54 -402.09 365.28 -381.64zm809.63 -338.03l-716.94 0 0 1121.75 716.94 0 0 -209.9 -487.96 0 0 -246.7 407.54 0 0 -209.9 -407.54 0 0 -245.34 487.96 0 0 -209.9zm331.21 335.3l-220.81 0 0 786.45 220.81 0 0 -407.53c0,-59.98 28.62,-162.2 136.3,-177.2 49.07,-8.18 92.68,-1.36 130.85,5.45 19.08,2.73 35.44,5.45 49.07,5.45l57.25 -199c-13.63,0 -46.34,-13.63 -98.14,-21.81 -19.08,-1.36 -40.89,-2.72 -65.42,-2.72 -92.68,4.09 -181.28,57.25 -209.9,104.95l0 -94.05zm696.5 0l-220.81 0 0 786.45 220.81 0 0 -407.53c0,-59.98 28.62,-162.2 136.3,-177.2 49.07,-8.18 92.68,-1.36 130.85,5.45 19.08,2.73 35.44,5.45 49.07,5.45l57.25 -199c-13.63,0 -46.34,-13.63 -98.14,-21.81 -19.08,-1.36 -40.89,-2.72 -65.42,-2.72 -92.68,4.09 -181.28,57.25 -209.9,104.95l0 -94.05z"/>
 </g>
</svg>
